<svg width="24" height="24" viewBox="0 0 24 24" fill="none" xmlns="http://www.w3.org/2000/svg">
    <path d="M23.8615 5.01427C23.7241 4.81738 23.503 4.69567 23.2629 4.68541L8.37549 4.0437C7.94834 4.02501 7.59139 4.35478 7.57313 4.77994C7.55498 5.20494 7.88421 5.56404 8.30932 5.5823L22.1888 6.18062L19.4598 14.6953H7.31543L5.12137 2.74878C5.07314 2.48694 4.89338 2.26851 4.64546 2.17124L1.05195 0.759504C0.655903 0.604447 0.208991 0.79898 0.0534497 1.19455C-0.101823 1.59033 0.0926573 2.03751 0.488492 2.19305L3.68369 3.44828L5.91648 15.6045C5.98377 15.9699 6.30227 16.2354 6.67399 16.2354H7.04436L6.19861 18.5846C6.12782 18.7814 6.15699 18.9999 6.27745 19.1709C6.39776 19.3419 6.59342 19.4436 6.8023 19.4436H7.39551C7.02793 19.8527 6.8023 20.3914 6.8023 20.9837C6.8023 22.2576 7.83883 23.2938 9.11243 23.2938C10.386 23.2938 11.4226 22.2576 11.4226 20.9837C11.4226 20.3914 11.1969 19.8527 10.8294 19.4436H15.8661C15.4983 19.8527 15.2727 20.3914 15.2727 20.9837C15.2727 22.2576 16.309 23.2938 17.5829 23.2938C18.8568 23.2938 19.893 22.2576 19.893 20.9837C19.893 20.3914 19.6674 19.8527 19.2999 19.4436H20.0214C20.3758 19.4436 20.6631 19.1563 20.6631 18.8019C20.6631 18.4475 20.3758 18.1602 20.0214 18.1602H7.71535L8.4083 16.2351H20.0213C20.3562 16.2351 20.6525 16.0188 20.7545 15.7002L23.963 5.68955C24.0367 5.46108 23.9989 5.21128 23.8615 5.01427ZM9.11248 22.0107C8.54623 22.0107 8.08573 21.5502 8.08573 20.984C8.08573 20.4177 8.54623 19.9572 9.11248 19.9572C9.67873 19.9572 10.1392 20.4177 10.1392 20.984C10.1392 21.5502 9.67873 22.0107 9.11248 22.0107ZM17.5829 22.0107C17.0166 22.0107 16.5562 21.5502 16.5562 20.984C16.5562 20.4177 17.0166 19.9572 17.5829 19.9572C18.1491 19.9572 18.6096 20.4177 18.6096 20.984C18.6096 21.5502 18.1491 22.0107 17.5829 22.0107Z" fill="#F3F4F6" />
</svg>
