<svg width="25" height="24" viewBox="0 0 25 24" fill="none" xmlns="http://www.w3.org/2000/svg">
    <g clip-path="url(#clip0)">
        <path fill-rule="evenodd" clip-rule="evenodd" d="M12.5111 22.5C15.249 22.5 17.8747 21.3938 19.8106 19.4246C21.7466 17.4555 22.8342 14.7848 22.8342 12C22.8342 9.21523 21.7466 6.54451 19.8106 4.57538C17.8747 2.60625 15.249 1.5 12.5111 1.5C9.77329 1.5 7.14759 2.60625 5.21164 4.57538C3.2757 6.54451 2.1881 9.21523 2.1881 12C2.1881 14.7848 3.2757 17.4555 5.21164 19.4246C7.14759 21.3938 9.77329 22.5 12.5111 22.5ZM24.3089 12C24.3089 15.1826 23.0659 18.2348 20.8534 20.4853C18.6409 22.7357 15.6401 24 12.5111 24C9.38217 24 6.38137 22.7357 4.16886 20.4853C1.95635 18.2348 0.713379 15.1826 0.713379 12C0.713379 8.8174 1.95635 5.76516 4.16886 3.51472C6.38137 1.26428 9.38217 0 12.5111 0C15.6401 0 18.6409 1.26428 20.8534 3.51472C23.0659 5.76516 24.3089 8.8174 24.3089 12Z" fill="#F3F4F6" />
        <path fill-rule="evenodd" clip-rule="evenodd" d="M11.774 4.5C11.9695 4.5 12.1571 4.57902 12.2954 4.71967C12.4337 4.86032 12.5113 5.05109 12.5113 5.25V13.065L17.3012 15.849C17.4661 15.9502 17.5855 16.1129 17.634 16.3024C17.6824 16.492 17.6561 16.6933 17.5606 16.8633C17.465 17.0333 17.3079 17.1586 17.1228 17.2124C16.9376 17.2661 16.7392 17.2441 16.5698 17.151L11.4083 14.151C11.2954 14.0854 11.2016 13.9907 11.1363 13.8764C11.0711 13.762 11.0367 13.6322 11.0366 13.5V5.25C11.0366 5.05109 11.1143 4.86032 11.2526 4.71967C11.3909 4.57902 11.5784 4.5 11.774 4.5Z" fill="#F3F4F6" />
    </g>
    <defs>
        <clipPath id="clip0">
            <rect width="23.5955" height="24" fill="white" transform="translate(0.713379)" />
        </clipPath>
    </defs>
</svg>
