<svg width="47" height="33" viewBox="0 0 47 33" fill="none" xmlns="http://www.w3.org/2000/svg">
    <path d="M43.3538 5.50146L43.3541 5.42838L42.96 5.42714L42.9503 8.53192C42.0135 7.75641 40.9478 7.11685 39.9226 6.60704C37.286 5.29581 34.4058 4.4936 31.4946 4.00291L31.4993 2.5271C32.9267 1.29584 34.207 3.09505 35.1532 1.31767C32.9303 1.34685 33.4183 -0.0138088 31.5071 0.103492L31.5073 0.0304193L31.1132 0.0291748L31.1009 3.93708C30.39 3.82407 29.6779 3.72917 28.9674 3.64965C25.0013 3.20579 20.952 3.24029 16.9976 3.78675C16.6323 3.83719 16.2663 3.89307 15.8998 3.95223L15.8875 0.0291748L15.4934 0.0304193L15.4936 0.103492C13.5823 -0.0138088 14.0704 1.34697 11.8474 1.31767C12.7934 3.09505 14.074 1.29584 15.5012 2.5271L15.506 4.01659C12.2213 4.5755 8.92682 5.51345 6.05143 7.18913C5.38778 7.57587 4.69586 8.04168 4.05065 8.57875L4.0407 5.42703L3.6466 5.42827L3.64683 5.50134C1.73496 5.38393 2.22316 6.74482 0 6.71563C0.946434 8.4929 2.22667 6.69392 3.65396 7.92517L3.65724 8.9207C2.26321 10.1899 1.1842 11.8128 1.27345 13.717C1.37661 15.9216 2.6633 17.636 4.31455 18.9484V22.0961C3.69864 21.5701 3.22514 21.0276 2.91271 20.5162C2.74021 20.2348 2.60889 19.9677 2.51172 19.7269C2.41806 19.4852 2.352 19.2715 2.31354 19.0944C2.27441 18.9176 2.24816 18.7791 2.23753 18.6852C2.22497 18.591 2.21853 18.5424 2.21853 18.5424C2.21853 18.5424 2.21479 18.5914 2.20767 18.6862C2.19952 18.7813 2.19308 18.9235 2.20099 19.1094C2.21864 19.4784 2.28232 20.0393 2.56262 20.6948C2.6996 21.0224 2.88296 21.3738 3.1196 21.7328C3.35465 22.093 3.64921 22.4546 3.98765 22.8169C4.09149 22.9273 4.20155 23.0369 4.31444 23.1461V26.01C3.69852 25.484 3.22502 24.9416 2.9126 24.4302C2.7401 24.1488 2.60877 23.8818 2.51161 23.6409C2.41795 23.3993 2.35189 23.1855 2.31343 23.0084C2.27429 22.8316 2.24805 22.693 2.23742 22.5993C2.22486 22.505 2.21841 22.4564 2.21841 22.4564C2.21841 22.4564 2.21468 22.5054 2.20755 22.6002C2.19941 22.6953 2.19296 22.8375 2.20088 23.0234C2.21853 23.3924 2.28221 23.9532 2.56274 24.6089C2.69972 24.9363 2.88308 25.2877 3.11971 25.6468C3.35477 26.007 3.64932 26.3685 3.98776 26.7308C4.0916 26.8411 4.20143 26.9506 4.31432 27.0597L4.39803 27.139C5.00885 27.7167 5.74285 28.2747 6.57662 28.792C7.09118 29.1115 7.6442 29.4141 8.22743 29.7029C8.8111 29.9905 9.42814 30.2565 10.0695 30.5102C11.3548 31.0097 12.7447 31.439 14.2044 31.7791C14.9335 31.9531 15.6809 32.0998 16.44 32.2292C16.4776 32.2356 16.5154 32.2413 16.5529 32.2476L16.7699 32.9704L17.2283 32.8329L17.6866 32.6953L16.0603 27.2789C21.061 26.0088 25.9391 26.0088 30.9396 27.2789L29.3133 32.6952L29.7718 32.8329L30.23 32.9706L30.447 32.2479C30.4845 32.2415 30.5225 32.2358 30.5598 32.2293C31.3192 32.0999 32.0665 31.9531 32.7957 31.7792C34.2551 31.4391 35.6452 31.0098 36.9306 30.5103C37.5717 30.2566 38.189 29.9906 38.7727 29.703C39.3557 29.4142 39.9089 29.1116 40.4233 28.7921C41.257 28.2748 41.9909 27.7168 42.6021 27.1391L42.6858 27.0598C42.7987 26.9508 42.9085 26.8412 43.0121 26.7309C43.6943 26.0105 44.1709 25.2685 44.4391 24.6099C44.715 23.9523 44.7861 23.3938 44.7997 23.0237C44.8068 22.8372 44.801 22.6943 44.7926 22.6003C44.7854 22.5055 44.7817 22.4565 44.7817 22.4565C44.7817 22.4565 44.775 22.5051 44.7625 22.5994C44.7516 22.6944 44.726 22.832 44.686 23.0084C44.6466 23.1853 44.5798 23.3988 44.4871 23.6407C44.3914 23.8819 44.2596 24.1488 44.0855 24.4293C43.9096 24.7089 43.6933 25.0033 43.4267 25.2966C43.2088 25.534 42.9619 25.7743 42.6857 26.0102V23.1461C42.7986 23.0369 42.9086 22.9273 43.0122 22.8169C43.6942 22.0965 44.171 21.3544 44.439 20.6958C44.7148 20.0382 44.786 19.4797 44.7996 19.1095C44.8067 18.9231 44.8009 18.78 44.7924 18.6862C44.7853 18.5914 44.7816 18.5424 44.7816 18.5424C44.7816 18.5424 44.7749 18.591 44.7624 18.6852C44.7515 18.7803 44.7259 18.9179 44.6859 19.0943C44.6465 19.2713 44.5797 19.4846 44.4873 19.7266C44.3916 19.9677 44.2597 20.2347 44.0856 20.5152C43.9095 20.7947 43.6934 21.0892 43.4268 21.3825C43.2089 21.62 42.9618 21.8603 42.6856 22.0962V18.9904C44.3547 17.6696 45.6407 15.9408 45.77 13.7067C45.7631 11.7442 44.7392 10.1425 43.3431 8.87342L43.3459 7.92506C44.7733 6.6938 46.0537 8.49278 46.9999 6.71552C44.7768 6.74482 45.265 5.38393 43.3538 5.50146ZM31.6753 5.95708C33.5536 6.3126 35.4016 6.81506 37.1773 7.50687C38.7609 8.12392 40.7077 9.01753 42.0799 10.3217L34.5397 15.0045C33.0462 13.8539 30.6507 12.9594 27.7771 12.5074L31.6753 5.95708ZM26.0086 5.29027C27.5031 5.37251 29.0054 5.52125 30.4945 5.7545L26.571 12.3471C25.5877 12.2396 24.559 12.1821 23.5001 12.1821C22.441 12.1821 21.4126 12.2395 20.429 12.3471L16.5047 5.7528C19.6422 5.25611 22.8379 5.11585 26.0086 5.29027ZM6.29338 9.25823C8.97455 7.48674 12.1835 6.54268 15.3247 5.95686L19.223 12.5072C16.3494 12.9594 13.9539 13.8538 12.4604 15.0044L4.91621 10.319C5.34469 9.92482 5.81547 9.57383 6.29338 9.25823ZM9.63118 28.8058C8.7335 28.4991 7.89487 28.1599 7.13032 27.7898C6.61735 27.5461 6.1426 27.2819 5.70315 27.0124C5.61107 26.9561 5.5216 26.8989 5.43292 26.8413V24.0962C5.78923 24.3649 6.17099 24.6265 6.57662 24.8783C7.09118 25.1978 7.64432 25.5004 8.22743 25.7892C8.67683 26.0107 9.14626 26.2192 9.63118 26.4192V28.8058ZM9.63118 24.892C8.7335 24.5853 7.89464 24.246 7.1301 23.8759C6.61712 23.6322 6.1426 23.368 5.70315 23.0985C5.61085 23.0423 5.5216 22.985 5.43292 22.9274V19.7474C5.82441 19.9998 6.22472 20.2335 6.62572 20.4493C7.59138 20.969 8.59833 21.4113 9.63118 21.7923V24.892ZM8.64448 19.3043C7.08315 18.5898 5.50644 17.7022 4.35957 16.3966C3.80587 15.7665 3.00264 14.5827 3.16745 13.6567C3.24765 13.2065 3.37468 12.4462 3.66006 11.8757C3.79988 11.6215 3.96186 11.3815 4.1399 11.1535L11.6141 15.7953C11.0852 16.4104 10.7947 17.077 10.7947 17.7737C10.7947 18.8685 11.5105 19.8896 12.7461 20.752C11.3382 20.3787 9.96035 19.9064 8.64448 19.3043ZM14.5631 30.0627C13.2273 29.8188 11.9464 29.5166 10.7494 29.1612V26.8496C11.8409 27.2417 12.9983 27.5844 14.2043 27.8654C14.5684 27.9523 14.9372 28.0324 15.3096 28.1069L15.966 30.2932C15.493 30.222 15.0249 30.1446 14.5631 30.0627ZM36.2508 29.1612C35.0538 29.5167 33.7729 29.8188 32.4369 30.0627C31.9754 30.1446 31.507 30.222 31.034 30.2933L31.6904 28.1071C32.0629 28.0325 32.4317 27.9524 32.7958 27.8656C34.0021 27.5845 35.1595 27.2417 36.2509 26.8497V29.1612H36.2508ZM36.2508 25.2474C35.0538 25.6028 33.7729 25.905 32.4371 26.1489C32.0264 26.2218 31.6103 26.291 31.1905 26.3557C26.021 25.0398 20.9792 25.0398 15.8096 26.3557C15.3899 26.291 14.9738 26.2218 14.5631 26.1489C13.2271 25.9052 11.9464 25.6028 10.7494 25.2474V22.1785C13.0203 22.9067 15.3932 23.3575 17.7312 23.6441C21.6092 24.1194 25.5612 24.1133 29.4382 23.6323C31.7279 23.3482 34.0358 22.9021 36.2508 22.1943V25.2474ZM41.5673 26.8414C41.4787 26.899 41.3893 26.9562 41.2968 27.0126C40.8574 27.282 40.3829 27.5461 39.8699 27.7899C39.1052 28.1599 38.2664 28.4991 37.369 28.8059V26.4193C37.8537 26.2192 38.3235 26.0108 38.7728 25.7893C39.3558 25.5007 39.909 25.198 40.4234 24.8784C40.8292 24.6266 41.211 24.3649 41.5673 24.0963V26.8414ZM41.5673 22.9274C41.4787 22.985 41.3893 23.0423 41.2971 23.0985C40.8576 23.368 40.3831 23.6321 39.8701 23.8759C39.1055 24.246 38.2666 24.5853 37.369 24.892V21.8093C38.3152 21.4622 39.2417 21.0645 40.1369 20.6042C40.6196 20.3562 41.1006 20.0831 41.5673 19.7845V22.9274ZM43.7915 13.6499C43.7751 15.352 42.2487 16.9592 40.7553 17.9595C38.8142 19.2595 36.5837 20.1234 34.2949 20.7229C35.5054 19.8667 36.2053 18.8562 36.2053 17.7735C36.2053 17.077 35.9151 16.4103 35.3861 15.7952L42.8362 11.1684C43.3715 11.8869 43.7267 12.7086 43.7915 13.6499Z" fill="#F3F4F6" />
</svg>
