<svg width="25" height="38" viewBox="0 0 25 38" fill="none" xmlns="http://www.w3.org/2000/svg">
<path d="M23.455 21.4472L5.6385 37.0342C3.539 38.8737 0.250001 37.3787 0.250001 34.5869V3.41294C0.249466 2.78815 0.429035 2.17644 0.767208 1.65108C1.10538 1.12572 1.58782 0.708966 2.15675 0.450735C2.72569 0.192503 3.35699 0.103738 3.97508 0.195069C4.59316 0.286399 5.17182 0.553955 5.64175 0.965694L23.4518 16.5527C23.8008 16.8577 24.0806 17.2339 24.2723 17.656C24.464 18.0781 24.5632 18.5364 24.5632 18.9999C24.5632 19.4635 24.464 19.9218 24.2723 20.3439C24.0806 20.7659 23.8008 21.1421 23.4518 21.4472H23.455Z" fill="#F3F4F6"/>
</svg>
