<svg width="25" height="38" viewBox="0 0 25 38" fill="none" xmlns="http://www.w3.org/2000/svg">
<path d="M1.54519 21.4472L19.3617 37.0342C21.4612 38.8737 24.7502 37.3787 24.7502 34.5869V3.41294C24.7507 2.78815 24.5712 2.17644 24.233 1.65108C23.8948 1.12572 23.4124 0.708966 22.8434 0.450735C22.2745 0.192503 21.6432 0.103738 21.0251 0.195069C20.407 0.286399 19.8284 0.553955 19.3584 0.965694L1.54844 16.5527C1.19936 16.8577 0.919584 17.2339 0.727887 17.656C0.536189 18.0781 0.437012 18.5364 0.437012 18.9999C0.437012 19.4635 0.536189 19.9218 0.727887 20.3439C0.919584 20.7659 1.19936 21.1421 1.54844 21.4472H1.54519Z" fill="#F3F4F6"/>
</svg>
