<svg width="24" height="23" viewBox="0 0 24 23" fill="none" xmlns="http://www.w3.org/2000/svg">
    <path d="M18.4868 22.6266C18.2626 22.626 18.0391 22.6014 17.8201 22.5533C13.6512 21.6909 9.81056 19.6689 6.74015 16.72C3.73526 13.7646 1.65121 10.0017 0.74015 5.88664C0.632724 5.37378 0.65909 4.8419 0.816712 4.34218C0.974335 3.84246 1.25791 3.39172 1.64015 3.03331L4.30682 0.46664C4.44302 0.337832 4.60486 0.239193 4.78176 0.177161C4.95867 0.11513 5.14666 0.0910999 5.33348 0.10664C5.52719 0.126849 5.71412 0.189249 5.88113 0.289452C6.04813 0.389656 6.19116 0.52523 6.30015 0.68664L9.63348 5.61331C9.75848 5.80447 9.81882 6.03071 9.80562 6.25873C9.79242 6.48675 9.70638 6.70451 9.56015 6.87997L7.88682 8.87997C8.55325 10.3549 9.49705 11.688 10.6668 12.8066C11.829 13.9658 13.2027 14.8914 14.7135 15.5333L16.7868 13.8866C16.961 13.749 17.1729 13.6677 17.3943 13.6534C17.6158 13.6391 17.8364 13.6925 18.0268 13.8066L23.0601 17.06C23.2329 17.1631 23.38 17.304 23.4906 17.4721C23.6011 17.6401 23.6722 17.8311 23.6985 18.0305C23.7248 18.2299 23.7056 18.4328 23.6424 18.6237C23.5792 18.8147 23.4736 18.9889 23.3335 19.1333L20.7335 21.7066C20.4381 22.0005 20.0876 22.2331 19.702 22.391C19.3165 22.5489 18.9035 22.629 18.4868 22.6266ZM5.22682 1.42664L2.56015 3.99331C2.34512 4.19367 2.18594 4.44656 2.09827 4.7271C2.01061 5.00763 1.99747 5.30615 2.06015 5.59331C2.9073 9.45473 4.85463 12.9882 7.66682 15.7666C10.5563 18.541 14.1706 20.4429 18.0935 21.2533C18.3904 21.3154 18.6981 21.3028 18.989 21.2167C19.2799 21.1306 19.5448 20.9737 19.7601 20.76L22.3601 18.1866L17.5001 15.0466L15.2735 16.82C15.1882 16.8874 15.0878 16.933 14.9809 16.9528C14.874 16.9725 14.7639 16.9659 14.6601 16.9333C12.8113 16.2521 11.1358 15.1708 9.75348 13.7666C8.32372 12.4314 7.2139 10.7906 6.50682 8.96664C6.4769 8.85622 6.47591 8.73995 6.50393 8.62903C6.53195 8.51812 6.58805 8.41627 6.66682 8.33331L8.46682 6.17997L5.22682 1.42664Z" fill="#F3F4F6" />
</svg>
