<svg width="48" height="40" viewBox="0 0 48 40" fill="none" xmlns="http://www.w3.org/2000/svg">
    <path d="M45.1763 19.7651V18.2189C45.1763 14.0671 41.7986 10.6895 37.6469 10.6895C33.4952 10.6895 30.1175 14.0671 30.1175 18.2189V19.7651H27.2939V29.6475C27.2939 35.3561 31.9383 40.0004 37.6469 40.0004C43.3555 40.0004 47.9998 35.3561 47.9998 29.6475V19.7651H45.1763ZM32.941 18.2189C32.941 15.624 35.0521 13.513 37.6469 13.513C40.2417 13.513 42.3528 15.624 42.3528 18.2189V19.7651H32.941V18.2189ZM36.6546 33.0046L32.884 29.2339L34.8805 27.2374L36.7569 29.1138L40.4672 25.7745L42.3561 27.8733L36.6546 33.0046Z" fill="#007C05" />
    <path d="M8.4707 11.2949H11.7648V14.1185H8.4707V11.2949Z" fill="#007C05" />
    <path d="M24.4706 22.5882H22.5882V19.7647H24.4706V16.9412H27.2941H27.3729C28.0042 11.833 32.3708 7.86551 37.6471 7.86551C38.2898 7.86551 38.9188 7.9249 39.5294 8.03755V3.77299C39.5294 1.69261 37.8369 0 35.7564 0H3.77299C1.69252 0 0 1.69252 0 3.77299V24.4623C0 26.5428 1.69252 28.2353 3.77299 28.2353H24.4706V22.5882ZM11.2941 22.5882H5.64706V19.7647H11.2941V22.5882ZM11.9855 16.9412H8.24979C6.81459 16.9412 5.64706 15.7736 5.64706 14.3384V11.0733C5.64706 9.63812 6.81459 8.47059 8.24979 8.47059H11.9855C13.4207 8.47059 14.5882 9.63812 14.5882 11.0733V14.3384C14.5882 15.7736 13.4207 16.9412 11.9855 16.9412ZM19.7647 22.5882H14.1176V19.7647H19.7647V22.5882Z" fill="#007C05" />
</svg>
