<svg width="60" height="60" viewBox="0 0 60 60" fill="none" xmlns="http://www.w3.org/2000/svg">
    <path d="M58.1255 25.0871C57.6056 24.2562 57.1145 23.4712 56.9307 22.7841C56.7328 22.0435 56.7639 21.086 56.7969 20.0721C56.8498 18.443 56.9098 16.5965 55.9837 14.9959C55.0447 13.3729 53.4026 12.4996 51.954 11.7292C51.0698 11.259 50.2348 10.8149 49.7099 10.29C49.1851 9.76524 48.741 8.93008 48.2707 8.04602C47.5003 6.59717 46.627 4.9552 45.0039 4.01622C43.4033 3.09012 41.557 3.14965 39.9276 3.20303C38.9137 3.23575 37.9561 3.26693 37.2157 3.06909C36.5284 2.88532 35.7436 2.39421 34.9126 1.87429C33.5086 0.995906 31.917 0 30 0C28.083 0 26.4914 0.995906 25.0872 1.87441C24.2563 2.39433 23.4713 2.88555 22.7841 3.06921C22.0435 3.26705 21.0861 3.23587 20.0721 3.20315C18.4431 3.15 16.5966 3.09024 14.996 4.01634C13.3729 4.95532 12.4997 6.5974 11.7292 8.04614C11.259 8.9302 10.8148 9.76536 10.29 10.2901C9.76524 10.8148 8.9302 11.259 8.04602 11.7292C6.59728 12.4996 4.95532 13.3729 4.01622 14.996C3.09012 16.5966 3.15012 18.4432 3.20291 20.0722C3.23587 21.0861 3.26693 22.0437 3.06898 22.7843C2.8852 23.4716 2.39421 24.2564 1.87417 25.0873C0.995906 26.4914 0 28.083 0 30C0 31.917 0.995906 33.5086 1.87453 34.9129C2.39445 35.7438 2.88555 36.5288 3.06933 37.2159C3.26717 37.9565 3.2361 38.914 3.20315 39.9279C3.15024 41.557 3.09024 43.4035 4.01634 45.0041C4.95532 46.6271 6.5974 47.5004 8.04602 48.2708C8.9302 48.741 9.76524 49.1851 10.2901 49.71C10.8149 50.2348 11.259 51.0699 11.7293 51.954C12.4997 53.4028 13.373 55.0448 14.9961 55.9838C16.5967 56.9099 18.4429 56.8504 20.0724 56.797C21.0862 56.7641 22.0439 56.7331 22.7843 56.9309C23.4716 57.1147 24.2564 57.6058 25.0874 58.1257C26.4914 59.0041 28.083 60 30 60C31.917 60 33.5086 59.0041 34.9128 58.1256C35.7437 57.6057 36.5287 57.1145 37.2159 56.9308C37.9565 56.7328 38.9139 56.764 39.9279 56.7969C41.5569 56.8502 43.4035 56.9099 45.004 55.9837C46.6271 55.0447 47.5003 53.4026 48.2708 51.9539C48.741 51.0698 49.1852 50.2346 49.71 49.7099C50.2348 49.1852 51.0698 48.741 51.954 48.2708C53.4027 47.5004 55.0447 46.6271 55.9838 45.004C56.9099 43.4034 56.8499 41.5569 56.7971 39.9278C56.7641 38.9139 56.7331 37.9563 56.931 37.2157C57.1148 36.5284 57.6058 35.7436 58.1258 34.9127C59.0041 33.5086 60 31.917 60 30C60 28.083 59.0041 26.4914 58.1255 25.0871ZM55.1218 33.0333C54.486 34.0493 53.8286 35.0999 53.5076 36.3009C53.1744 37.5477 53.2155 38.8161 53.2553 40.0429C53.2964 41.3096 53.3353 42.506 52.9166 43.2296C52.4854 43.9749 51.4189 44.542 50.2899 45.1424C49.2149 45.7142 48.1033 46.3054 47.2043 47.2044C46.3052 48.1035 45.714 49.215 45.1423 50.29C44.5419 51.4192 43.9747 52.4856 43.2295 52.9167C42.5059 53.3354 41.3094 53.2967 40.0428 53.2554C38.8161 53.2156 37.5477 53.1743 36.3009 53.5076C35.0999 53.8286 34.0493 54.486 33.0332 55.1218C31.9362 55.8083 30.8999 56.4567 30 56.4567C29.1001 56.4567 28.0639 55.8083 26.9668 55.1218C25.9507 54.486 24.9001 53.8286 23.6991 53.5076C22.8628 53.284 22.0168 53.2291 21.1801 53.2291C20.7694 53.2291 20.361 53.2423 19.9572 53.2556C18.6905 53.2965 17.4941 53.3356 16.7705 52.9168C16.0252 52.4857 15.4581 51.4192 14.8577 50.2902C14.2859 49.2151 13.6948 48.1036 12.7957 47.2045C11.8967 46.3055 10.785 45.7142 9.70996 45.1424C8.58095 44.542 7.51453 43.9748 7.08343 43.2298C6.66472 42.506 6.70358 41.3096 6.74469 40.043C6.78449 38.8163 6.82571 37.5478 6.49252 36.3011C6.1715 35.1001 5.51409 34.0495 4.87843 33.0335C4.19173 31.9363 3.54331 30.8999 3.54331 30C3.54331 29.1001 4.19173 28.0638 4.87819 26.9667C5.51398 25.9507 6.17138 24.9001 6.4924 23.6991C6.82559 22.4523 6.78449 21.1839 6.74469 19.9571C6.70358 18.6904 6.66472 17.494 7.08343 16.7704C7.51465 16.0251 8.58106 15.458 9.71008 14.8576C10.7851 14.2858 11.8967 13.6946 12.7957 12.7956C13.6948 11.8965 14.286 10.785 14.8577 9.70996C15.4581 8.58083 16.0253 7.51441 16.7705 7.08331C17.4943 6.66461 18.6907 6.70358 19.9572 6.74457C21.1839 6.78461 22.4524 6.82583 23.6991 6.4924C24.9001 6.17138 25.9507 5.51398 26.9668 4.87819C28.0638 4.19173 29.1001 3.54331 30 3.54331C30.8999 3.54331 31.9361 4.19173 33.0332 4.87819C34.0493 5.51398 35.0999 6.17138 36.3009 6.4924C37.5476 6.82559 38.8162 6.78449 40.0428 6.74457C41.3096 6.7037 42.5059 6.66461 43.2295 7.08331C43.9748 7.51441 44.5419 8.58095 45.1423 9.70996C45.7141 10.785 46.3052 11.8965 47.2043 12.7956C48.1033 13.6946 49.215 14.2859 50.29 14.8577C51.4191 15.4581 52.4855 16.0253 52.9166 16.7704C53.3353 17.4941 53.2964 18.6905 53.2553 19.9571C53.2155 21.1838 53.1743 22.4523 53.5075 23.6991C53.8285 24.9 54.4859 25.9506 55.1216 26.9666C55.8083 28.0637 56.4567 29.1001 56.4567 30C56.4567 30.8999 55.8083 31.9362 55.1218 33.0333Z" fill="#0D3186" />
    <path d="M26.7053 33.6476L21.8037 28.7462L19.2983 31.2515L26.6547 38.608L40.6756 25.1481L38.2217 22.5918L26.7053 33.6476Z" fill="#0D3186" />
    <path d="M29.9999 9.33008C18.6028 9.33008 9.33057 18.6023 9.33057 29.9994C9.33057 41.3964 18.6028 50.6686 29.9999 50.6686C41.3969 50.6686 50.6692 41.3964 50.6692 29.9994C50.6692 18.6023 41.3969 9.33008 29.9999 9.33008ZM29.9999 47.1253C20.5566 47.1253 12.8739 39.4426 12.8739 29.9994C12.8739 20.5561 20.5566 12.8734 29.9999 12.8734C39.4431 12.8734 47.1258 20.5561 47.1258 29.9994C47.1258 39.4426 39.4431 47.1253 29.9999 47.1253Z" fill="#0D3186" />
</svg>
